<svg id="svg" version="1.1" xmlns="http://www.w3.org/2000/svg" xmlns:xlink="http://www.w3.org/1999/xlink" width="400" height="400" viewBox="0, 0, 400,400"><g id="svgg"><path id="path0" d="M120.414 147.542 C 118.756 149.269,115.510 152.733,113.200 155.238 C 110.890 157.742,107.110 161.763,104.800 164.171 C 102.490 166.580,100.150 169.026,99.600 169.608 C 99.050 170.189,96.805 172.540,94.611 174.832 C 92.416 177.125,88.906 180.802,86.811 183.004 C 84.715 185.206,77.946 192.226,71.768 198.604 C 51.753 219.268,48.788 222.984,43.203 234.400 C 42.073 236.710,40.785 239.320,40.340 240.200 C 39.597 241.668,38.947 243.510,36.810 250.200 C 36.093 252.446,34.767 258.677,33.534 265.600 C 32.691 270.333,32.817 289.501,33.724 294.483 C 35.975 306.844,43.115 317.312,59.400 332.126 C 60.463 333.093,63.837 335.371,70.200 339.419 C 83.375 347.798,97.736 352.376,114.200 353.445 C 136.237 354.876,157.984 346.859,174.945 331.050 C 177.334 328.822,179.404 326.908,179.545 326.796 C 179.948 326.474,186.270 319.688,197.971 307.017 C 199.605 305.248,202.579 302.090,204.581 300.000 C 206.583 297.910,210.098 294.220,212.391 291.800 C 214.684 289.380,218.189 285.689,220.180 283.598 C 224.915 278.625,232.988 269.971,235.450 267.228 C 236.523 266.034,238.705 263.641,240.300 261.912 C 241.895 260.182,243.200 258.568,243.200 258.326 C 243.200 257.915,238.326 253.034,230.400 245.507 C 228.530 243.731,224.480 239.827,221.400 236.832 C 218.320 233.836,213.910 229.601,211.600 227.420 C 209.290 225.239,204.610 220.741,201.200 217.426 C 197.790 214.110,193.110 209.605,190.800 207.413 C 188.490 205.222,184.248 201.173,181.373 198.415 C 167.854 185.444,157.725 175.702,152.220 170.373 C 147.035 165.355,140.157 158.783,138.014 156.800 C 137.657 156.470,134.633 153.545,131.294 150.300 C 124.028 143.239,124.441 143.344,120.414 147.542 M85.159 243.414 C 87.541 246.127,85.162 251.321,79.898 254.900 C 74.870 258.318,70.469 253.169,74.449 248.524 C 80.421 241.553,82.608 240.509,85.159 243.414 M72.451 268.673 C 73.598 269.821,74.070 273.202,73.547 276.541 C 72.773 281.489,73.347 293.437,74.577 297.979 C 76.019 303.303,75.965 305.622,74.369 306.964 C 68.279 312.089,63.803 300.092,64.534 280.600 C 64.814 273.135,65.469 270.230,67.226 268.660 C 68.709 267.335,71.119 267.341,72.451 268.673 M83.358 319.174 C 84.047 319.600,84.987 320.365,85.446 320.874 C 85.906 321.383,87.481 322.949,88.946 324.352 C 93.350 328.571,92.715 334.000,87.818 334.000 C 84.894 334.000,76.800 325.773,76.800 322.802 C 76.800 319.397,80.451 317.377,83.358 319.174 " stroke="none" fill="#54d390" fill-rule="evenodd"></path><path id="path1" d="M258.800 4.024 C 258.800 4.257,258.620 4.336,258.400 4.200 C 258.180 4.064,258.000 4.143,258.000 4.376 C 258.000 4.622,257.092 4.800,255.833 4.800 C 254.456 4.800,253.605 4.982,253.498 5.300 C 253.365 5.696,253.199 5.692,252.701 5.281 C 252.278 4.932,251.986 4.899,251.812 5.181 C 251.669 5.411,250.865 5.600,250.025 5.600 C 249.156 5.600,248.284 5.858,248.000 6.200 C 247.712 6.547,246.839 6.800,245.927 6.800 C 244.980 6.800,244.451 6.959,244.600 7.200 C 244.747 7.439,244.263 7.600,243.400 7.600 C 242.548 7.600,242.053 7.763,242.197 7.995 C 242.337 8.222,242.177 8.289,241.821 8.153 C 241.479 8.022,241.200 8.114,241.200 8.357 C 241.200 8.601,240.564 8.800,239.787 8.800 C 238.901 8.800,238.289 9.023,238.145 9.400 C 238.015 9.738,237.419 10.000,236.781 10.000 C 236.157 10.000,235.536 10.180,235.400 10.400 C 235.264 10.620,234.733 10.800,234.219 10.800 C 233.706 10.800,233.182 11.070,233.055 11.400 C 232.929 11.730,232.457 12.000,232.007 12.000 C 231.557 12.000,230.877 12.167,230.495 12.371 C 230.113 12.575,229.445 12.854,229.011 12.992 C 228.408 13.184,228.347 13.320,228.754 13.572 C 229.126 13.801,229.002 13.904,228.343 13.913 C 227.298 13.928,225.236 14.805,223.400 16.017 C 222.740 16.453,221.885 16.918,221.500 17.051 C 221.115 17.184,220.800 17.452,220.800 17.647 C 220.800 17.841,220.350 18.000,219.800 18.000 C 219.250 18.000,218.799 18.225,218.797 18.500 C 218.794 19.016,217.039 20.000,216.120 20.000 C 215.834 20.000,215.600 20.228,215.600 20.506 C 215.600 20.784,214.880 21.323,214.000 21.704 C 213.120 22.086,212.400 22.578,212.400 22.799 C 212.400 23.019,212.195 23.200,211.944 23.200 C 211.693 23.200,211.258 23.515,210.976 23.900 C 210.695 24.285,210.315 24.616,210.132 24.635 C 209.282 24.723,208.400 25.338,208.400 25.843 C 208.400 26.149,208.130 26.400,207.800 26.400 C 207.470 26.400,207.200 26.591,207.200 26.824 C 207.200 27.057,207.020 27.136,206.800 27.000 C 206.580 26.864,206.400 27.101,206.400 27.526 C 206.400 28.080,206.122 28.300,205.421 28.300 C 204.414 28.300,203.200 29.213,203.200 29.971 C 203.200 30.207,202.930 30.400,202.600 30.400 C 202.270 30.400,202.000 30.670,202.000 31.000 C 202.000 31.330,201.775 31.602,201.500 31.604 C 200.600 31.610,196.998 35.062,197.630 35.312 C 197.948 35.437,197.733 35.551,197.143 35.568 C 196.106 35.599,195.378 36.518,195.822 37.236 C 195.946 37.436,195.587 37.600,195.024 37.600 C 194.380 37.600,194.000 37.823,194.000 38.200 C 194.000 38.530,193.685 38.814,193.300 38.832 C 192.869 38.851,192.795 38.942,193.108 39.068 C 193.598 39.265,192.256 40.647,191.487 40.737 C 190.979 40.797,186.800 45.109,186.800 45.574 C 186.800 45.808,186.607 46.000,186.371 46.000 C 186.136 46.000,185.686 46.257,185.371 46.571 C 185.057 46.886,184.800 47.336,184.800 47.571 C 184.800 47.807,184.622 48.000,184.405 48.000 C 183.763 48.000,182.400 49.330,182.400 49.956 C 182.400 50.273,182.288 50.421,182.151 50.285 C 181.847 49.980,179.600 52.169,179.600 52.769 C 179.600 53.006,179.407 53.200,179.171 53.200 C 178.618 53.200,177.600 54.218,177.600 54.771 C 177.600 55.007,177.360 55.200,177.068 55.200 C 176.775 55.200,176.294 55.650,176.000 56.200 C 175.706 56.750,175.215 57.200,174.909 57.200 C 174.603 57.200,174.437 57.337,174.541 57.504 C 174.644 57.672,174.475 58.156,174.165 58.581 C 173.854 59.005,173.600 59.206,173.600 59.027 C 173.600 58.848,173.332 58.924,173.004 59.196 C 172.677 59.468,172.485 59.814,172.578 59.964 C 172.671 60.115,172.582 60.500,172.380 60.819 C 172.108 61.249,172.011 61.264,172.006 60.879 C 172.003 60.584,171.611 60.781,171.100 61.335 C 170.605 61.872,169.525 63.044,168.700 63.939 C 167.875 64.833,167.200 65.753,167.200 65.983 C 167.200 66.212,166.930 66.400,166.600 66.400 C 166.270 66.400,166.000 66.593,166.000 66.829 C 166.000 67.382,164.982 68.400,164.429 68.400 C 164.193 68.400,164.000 68.593,164.000 68.829 C 164.000 69.382,162.982 70.400,162.429 70.400 C 162.193 70.400,162.000 70.670,162.000 71.000 C 162.000 71.330,161.760 71.600,161.468 71.600 C 161.175 71.600,160.694 72.050,160.400 72.600 C 160.106 73.150,159.625 73.600,159.332 73.600 C 159.040 73.600,158.800 73.870,158.800 74.200 C 158.800 74.530,158.620 74.800,158.400 74.800 C 158.180 74.800,158.000 75.250,158.000 75.800 C 158.000 76.350,157.801 76.800,157.557 76.800 C 157.302 76.800,157.226 76.504,157.378 76.100 C 157.523 75.715,156.928 76.208,156.056 77.196 C 155.184 78.183,154.558 79.132,154.665 79.305 C 154.772 79.478,154.702 79.570,154.509 79.510 C 154.316 79.449,153.538 80.120,152.779 81.000 C 152.021 81.880,151.265 82.660,151.100 82.733 C 150.935 82.807,150.800 83.122,150.800 83.433 C 150.800 83.745,150.607 84.000,150.371 84.000 C 149.818 84.000,148.800 85.018,148.800 85.571 C 148.800 85.807,148.606 86.000,148.369 86.000 C 148.132 86.000,147.412 86.526,146.769 87.169 C 145.624 88.314,145.207 89.090,146.000 88.600 C 146.220 88.464,146.400 88.500,146.400 88.680 C 146.400 88.860,146.021 89.244,145.558 89.533 C 144.861 89.969,144.771 89.968,145.035 89.530 C 145.299 89.090,145.242 89.090,144.701 89.529 C 144.333 89.827,144.154 90.337,144.292 90.695 C 144.454 91.117,144.378 91.234,144.068 91.042 C 143.777 90.862,143.598 91.027,143.594 91.476 C 143.589 92.090,143.529 92.109,143.200 91.600 C 142.987 91.270,142.809 91.195,142.806 91.433 C 142.803 91.672,142.265 92.392,141.611 93.033 C 140.957 93.675,140.417 94.425,140.411 94.700 C 140.405 94.975,140.130 95.200,139.800 95.200 C 139.470 95.200,139.200 95.393,139.200 95.629 C 139.200 96.182,138.182 97.200,137.629 97.200 C 137.393 97.200,137.200 97.393,137.200 97.629 C 137.200 97.866,136.275 98.975,135.143 100.094 C 134.012 101.213,133.382 102.016,133.743 101.877 C 134.105 101.738,134.400 101.799,134.400 102.013 C 134.400 102.226,133.905 102.414,133.300 102.432 C 132.695 102.449,132.425 102.554,132.700 102.665 C 132.975 102.776,133.200 103.042,133.200 103.257 C 133.200 103.472,133.020 103.536,132.799 103.400 C 132.411 103.159,129.865 105.598,130.177 105.911 C 130.356 106.089,128.919 107.600,128.571 107.600 C 128.179 107.600,127.200 108.722,127.200 109.171 C 127.200 109.407,126.930 109.600,126.600 109.600 C 126.270 109.600,126.000 109.949,126.000 110.376 C 126.000 110.803,125.792 111.281,125.538 111.438 C 125.252 111.615,125.185 111.548,125.362 111.262 C 125.519 111.008,125.457 110.800,125.224 110.800 C 124.991 110.800,124.787 111.295,124.772 111.900 C 124.747 112.875,124.705 112.909,124.400 112.200 C 124.144 111.603,124.049 111.562,124.028 112.039 C 123.993 112.841,122.608 114.475,122.259 114.126 C 122.021 113.888,121.840 114.584,121.953 115.300 C 121.979 115.465,121.800 115.555,121.555 115.500 C 121.310 115.445,120.815 115.981,120.455 116.691 C 120.095 117.401,119.652 117.986,119.471 117.991 C 118.993 118.004,118.000 119.071,118.000 119.571 C 118.000 119.807,117.796 120.000,117.547 120.000 C 116.713 120.000,114.421 122.782,114.654 123.511 C 114.831 124.061,114.794 124.086,114.474 123.635 C 113.938 122.880,112.800 123.954,112.800 125.214 C 112.800 125.805,112.616 126.015,112.229 125.867 C 111.880 125.733,111.231 126.220,110.555 127.124 C 109.948 127.936,109.035 129.030,108.526 129.555 C 108.017 130.080,107.600 130.665,107.600 130.855 C 107.600 131.045,107.407 131.200,107.171 131.200 C 106.936 131.200,106.486 131.457,106.171 131.771 C 105.857 132.086,105.600 132.536,105.600 132.771 C 105.600 133.007,105.330 133.200,105.000 133.200 C 104.670 133.200,104.400 133.378,104.400 133.595 C 104.400 134.210,103.096 135.583,102.729 135.356 C 102.548 135.244,102.400 135.343,102.400 135.576 C 102.400 135.809,102.715 136.021,103.100 136.047 C 103.485 136.073,103.260 136.210,102.600 136.350 C 101.757 136.529,101.362 136.874,101.271 137.509 C 101.201 138.005,100.987 138.315,100.796 138.197 C 100.388 137.945,98.400 139.981,98.400 140.650 C 98.400 140.902,97.950 141.403,97.400 141.763 C 96.850 142.124,96.400 142.684,96.400 143.009 C 96.400 143.334,96.208 143.600,95.974 143.600 C 95.419 143.600,91.200 147.819,91.200 148.374 C 91.200 148.608,91.007 148.800,90.771 148.800 C 90.039 148.800,89.126 149.909,89.700 150.100 C 90.341 150.314,89.316 151.382,88.102 151.768 C 87.628 151.918,87.135 152.375,87.005 152.784 C 86.876 153.192,86.495 153.631,86.159 153.760 C 85.820 153.891,85.677 154.200,85.836 154.459 C 86.009 154.738,85.949 154.816,85.689 154.655 C 85.446 154.505,84.938 154.920,84.541 155.593 C 84.148 156.257,83.596 156.800,83.314 156.800 C 83.031 156.800,82.800 156.978,82.800 157.195 C 82.800 157.810,81.496 159.183,81.129 158.956 C 80.948 158.844,80.796 158.988,80.791 159.276 C 80.786 159.564,80.073 160.413,79.206 161.163 C 78.340 161.912,77.724 162.677,77.839 162.863 C 77.953 163.048,77.767 163.200,77.424 163.200 C 76.812 163.200,76.628 163.647,76.783 164.754 C 76.831 165.103,76.630 165.220,76.241 165.071 C 75.874 164.930,75.396 165.156,75.067 165.625 C 74.762 166.061,73.857 167.125,73.056 167.991 C 72.255 168.857,71.600 169.753,71.600 169.983 C 71.600 170.212,71.407 170.400,71.171 170.400 C 70.618 170.400,69.600 171.418,69.600 171.971 C 69.600 172.207,69.285 172.403,68.900 172.406 C 68.302 172.411,68.287 172.469,68.800 172.800 C 69.285 173.114,69.228 173.189,68.500 173.194 C 67.878 173.198,67.600 173.440,67.600 173.976 C 67.600 174.785,66.968 175.446,66.734 174.880 C 66.660 174.701,66.060 175.186,65.400 175.957 C 64.740 176.728,64.425 177.222,64.700 177.056 C 64.976 176.889,65.200 176.943,65.200 177.176 C 65.200 177.409,64.868 177.600,64.462 177.600 C 63.463 177.600,62.145 179.035,62.876 179.327 C 63.166 179.443,63.018 179.551,62.543 179.568 C 61.712 179.599,60.973 180.585,61.170 181.400 C 61.223 181.620,61.150 181.683,61.007 181.540 C 60.762 181.296,58.000 183.778,58.000 184.242 C 58.000 184.624,56.870 185.600,56.429 185.600 C 56.193 185.600,56.000 185.793,56.000 186.029 C 56.000 186.551,55.197 187.389,54.393 187.704 C 53.926 187.888,53.948 187.944,54.500 187.968 C 54.885 187.986,55.200 188.199,55.200 188.443 C 55.200 188.686,54.945 188.788,54.633 188.668 C 54.321 188.548,53.967 188.709,53.846 189.025 C 53.724 189.341,53.327 189.600,52.964 189.600 C 52.421 189.600,52.392 189.708,52.800 190.200 C 53.275 190.772,52.743 191.040,51.507 190.850 C 51.346 190.825,51.097 191.271,50.954 191.840 C 50.762 192.606,50.605 192.736,50.353 192.338 C 50.085 191.914,50.011 191.910,50.006 192.317 C 50.003 192.602,49.550 193.320,49.000 193.913 C 48.450 194.507,48.000 195.219,48.000 195.496 C 48.000 195.773,47.807 196.000,47.571 196.000 C 47.018 196.000,46.000 197.018,46.000 197.571 C 46.000 197.807,45.730 198.000,45.400 198.000 C 45.034 198.000,44.800 198.373,44.800 198.957 C 44.800 199.643,44.518 199.984,43.800 200.164 C 43.250 200.302,42.800 200.687,42.800 201.020 C 42.800 201.353,42.530 201.729,42.200 201.855 C 41.870 201.982,41.600 202.258,41.600 202.470 C 41.600 202.681,40.970 203.448,40.200 204.174 C 39.430 204.900,38.800 205.794,38.800 206.160 C 38.800 206.526,38.530 206.929,38.200 207.055 C 37.870 207.182,37.600 207.536,37.600 207.843 C 37.600 208.149,37.360 208.400,37.068 208.400 C 36.775 208.400,36.280 208.895,35.968 209.500 C 35.656 210.105,35.176 210.744,34.901 210.920 C 34.625 211.096,34.400 211.501,34.400 211.820 C 34.400 212.139,34.220 212.400,34.000 212.400 C 33.780 212.400,33.600 212.651,33.600 212.957 C 33.600 213.264,33.330 213.618,33.000 213.745 C 32.670 213.871,32.400 214.275,32.400 214.642 C 32.400 215.008,31.950 215.725,31.400 216.235 C 30.850 216.745,30.400 217.440,30.400 217.781 C 30.400 218.121,30.228 218.400,30.019 218.400 C 29.809 218.400,29.324 219.075,28.940 219.900 C 28.557 220.725,28.008 221.544,27.722 221.720 C 27.435 221.896,27.200 222.391,27.200 222.820 C 27.200 223.249,27.020 223.600,26.800 223.600 C 26.580 223.600,26.400 224.031,26.400 224.557 C 26.400 225.084,26.130 225.618,25.800 225.745 C 25.470 225.871,25.200 226.416,25.200 226.954 C 25.200 227.493,25.026 227.993,24.813 228.067 C 24.600 228.140,24.381 228.785,24.328 229.500 C 24.272 230.243,24.009 230.800,23.715 230.800 C 23.421 230.800,23.197 231.273,23.194 231.900 C 23.189 232.713,23.093 232.851,22.826 232.428 C 22.558 232.004,22.391 232.240,22.186 233.332 C 22.034 234.144,21.730 234.919,21.512 235.054 C 21.271 235.204,21.328 235.435,21.657 235.644 C 22.057 235.897,22.068 235.989,21.700 235.994 C 21.425 235.997,21.200 236.270,21.200 236.600 C 21.200 236.930,21.009 237.200,20.776 237.200 C 20.543 237.200,20.464 237.380,20.600 237.600 C 20.736 237.820,20.657 238.000,20.424 238.000 C 20.191 238.000,20.000 238.720,20.000 239.600 C 20.000 240.480,19.820 241.200,19.600 241.200 C 19.380 241.200,19.200 241.628,19.200 242.151 C 19.200 242.674,18.930 243.326,18.600 243.600 C 18.258 243.884,18.000 244.756,18.000 245.625 C 18.000 246.465,17.820 247.264,17.600 247.400 C 17.380 247.536,17.200 248.273,17.200 249.038 C 17.200 249.802,16.940 250.827,16.622 251.314 C 16.304 251.801,16.001 253.049,15.948 254.086 C 15.895 255.123,15.634 256.055,15.367 256.158 C 14.833 256.362,14.502 258.615,14.158 264.400 C 14.033 266.490,13.722 268.453,13.466 268.761 C 12.438 270.001,12.609 289.613,13.641 288.975 C 13.871 288.832,13.822 289.095,13.533 289.558 C 13.112 290.233,13.106 290.558,13.504 291.195 C 13.797 291.664,14.000 293.373,14.000 295.371 C 14.000 297.332,14.179 298.863,14.426 299.016 C 14.660 299.161,14.821 299.756,14.784 300.340 C 14.569 303.670,14.794 305.303,15.400 304.800 C 15.891 304.392,16.000 304.420,16.000 304.951 C 16.000 305.308,15.784 305.600,15.520 305.600 C 15.147 305.600,15.147 305.707,15.520 306.080 C 15.784 306.344,16.000 307.312,16.000 308.231 C 16.000 309.228,16.242 310.103,16.600 310.400 C 16.945 310.686,17.200 311.558,17.200 312.449 C 17.200 313.302,17.380 314.000,17.600 314.000 C 17.820 314.000,18.000 314.739,18.000 315.643 C 18.000 316.833,18.144 317.230,18.524 317.084 C 18.896 316.942,19.076 317.364,19.144 318.542 C 19.197 319.454,19.411 320.260,19.620 320.333 C 19.829 320.407,20.000 320.997,20.000 321.646 C 20.000 322.325,20.254 322.923,20.600 323.055 C 20.938 323.185,21.200 323.781,21.200 324.419 C 21.200 325.043,21.380 325.664,21.600 325.800 C 21.820 325.936,22.000 326.397,22.000 326.824 C 22.000 327.251,22.270 327.600,22.600 327.600 C 23.015 327.600,23.200 328.017,23.200 328.957 C 23.200 329.795,23.430 330.403,23.800 330.545 C 24.130 330.671,24.400 331.220,24.400 331.764 C 24.400 332.308,24.580 332.864,24.800 333.000 C 25.020 333.136,25.200 333.577,25.200 333.981 C 25.200 334.384,25.470 334.818,25.800 334.945 C 26.130 335.071,26.400 335.541,26.400 335.987 C 26.400 336.434,26.580 336.800,26.800 336.800 C 27.020 336.800,27.200 337.250,27.200 337.800 C 27.200 338.422,27.427 338.800,27.800 338.800 C 28.173 338.800,28.400 339.178,28.400 339.800 C 28.400 340.350,28.537 340.800,28.705 340.800 C 29.011 340.800,29.733 341.985,30.229 343.300 C 30.374 343.685,30.742 344.000,31.047 344.000 C 31.370 344.000,31.600 344.415,31.600 345.000 C 31.600 345.550,31.780 346.000,32.000 346.000 C 32.220 346.000,32.400 346.205,32.400 346.456 C 32.400 346.707,32.715 347.142,33.100 347.424 C 33.485 347.705,33.816 348.085,33.835 348.268 C 33.923 349.118,34.538 350.000,35.043 350.000 C 35.349 350.000,35.600 350.334,35.600 350.742 C 35.600 351.149,36.050 351.969,36.600 352.562 C 37.150 353.156,37.600 353.812,37.600 354.021 C 37.600 354.229,37.837 354.400,38.126 354.400 C 38.415 354.400,38.952 355.030,39.319 355.800 C 39.687 356.570,40.170 357.200,40.394 357.200 C 40.617 357.200,40.800 357.393,40.800 357.629 C 40.800 358.182,41.818 359.200,42.371 359.200 C 42.607 359.200,42.800 359.394,42.800 359.631 C 42.800 360.191,45.009 362.400,45.569 362.400 C 45.806 362.400,46.000 362.637,46.000 362.926 C 46.000 363.560,52.109 369.600,52.750 369.600 C 52.997 369.600,53.200 369.793,53.200 370.029 C 53.200 370.582,54.218 371.600,54.771 371.600 C 55.007 371.600,55.200 371.870,55.200 372.200 C 55.200 372.769,55.712 372.993,56.600 372.814 C 56.820 372.770,56.871 372.862,56.714 373.020 C 56.395 373.339,58.077 374.800,58.763 374.800 C 59.003 374.800,59.200 375.070,59.200 375.400 C 59.200 375.730,59.388 376.000,59.617 376.000 C 59.847 376.000,60.520 376.450,61.113 377.000 C 61.707 377.550,62.419 378.000,62.696 378.000 C 62.973 378.000,63.200 378.180,63.200 378.400 C 63.200 378.620,63.470 378.800,63.800 378.800 C 64.130 378.800,64.400 379.041,64.400 379.336 C 64.400 379.631,65.120 380.110,66.000 380.400 C 66.880 380.690,67.600 381.169,67.600 381.464 C 67.600 381.759,67.966 382.000,68.413 382.000 C 68.859 382.000,69.329 382.270,69.455 382.600 C 69.582 382.930,69.936 383.200,70.243 383.200 C 70.549 383.200,70.800 383.391,70.800 383.624 C 70.800 383.857,70.975 383.939,71.189 383.807 C 71.403 383.674,71.893 383.934,72.278 384.383 C 72.663 384.832,73.388 385.200,73.889 385.200 C 74.390 385.200,74.800 385.380,74.800 385.600 C 74.800 385.820,75.250 386.000,75.800 386.000 C 76.422 386.000,76.800 386.227,76.800 386.600 C 76.800 386.930,77.149 387.200,77.576 387.200 C 78.003 387.200,78.464 387.380,78.600 387.600 C 78.736 387.820,79.287 388.000,79.824 388.000 C 80.437 388.000,80.800 388.229,80.800 388.618 C 80.800 388.957,81.025 389.206,81.300 389.170 C 82.540 389.009,84.000 389.235,84.000 389.587 C 84.000 389.801,83.730 389.871,83.400 389.745 C 83.070 389.618,82.800 389.603,82.800 389.711 C 82.800 390.010,86.634 391.200,87.599 391.200 C 88.065 391.200,88.348 391.361,88.226 391.558 C 87.930 392.036,88.960 392.400,90.609 392.400 C 91.348 392.400,92.064 392.580,92.200 392.800 C 92.336 393.020,92.865 393.200,93.375 393.200 C 93.885 393.200,94.526 393.470,94.800 393.800 C 95.086 394.145,95.958 394.400,96.849 394.400 C 97.702 394.400,98.400 394.580,98.400 394.800 C 98.400 395.020,99.368 395.200,100.551 395.200 C 101.975 395.200,102.870 395.403,103.200 395.800 C 103.474 396.130,103.890 396.400,104.125 396.400 C 104.361 396.400,104.204 396.111,103.776 395.758 C 103.064 395.168,103.089 395.168,104.086 395.758 C 104.683 396.111,105.952 396.400,106.906 396.400 C 107.860 396.400,108.859 396.619,109.128 396.888 C 110.633 398.393,144.170 398.390,145.676 396.884 C 145.960 396.600,147.285 396.400,148.880 396.400 C 151.031 396.400,151.600 396.275,151.600 395.800 C 151.600 395.258,153.883 394.918,155.870 395.163 C 156.128 395.195,156.454 395.036,156.593 394.811 C 156.733 394.585,157.535 394.400,158.375 394.400 C 159.244 394.400,160.116 394.142,160.400 393.800 C 160.674 393.470,161.495 393.200,162.225 393.200 C 162.955 393.200,163.664 393.020,163.800 392.800 C 163.936 392.580,164.566 392.400,165.200 392.400 C 165.834 392.400,166.481 392.192,166.638 391.938 C 166.827 391.633,166.746 391.586,166.400 391.800 C 166.095 391.989,165.974 391.966,166.110 391.745 C 166.239 391.537,167.023 391.322,167.853 391.266 C 168.682 391.210,169.550 391.017,169.781 390.837 C 170.011 390.657,170.695 390.392,171.300 390.248 C 171.905 390.103,172.400 389.808,172.400 389.592 C 172.400 389.377,172.856 389.200,173.413 389.200 C 173.969 389.200,174.529 388.930,174.655 388.600 C 174.787 388.258,175.383 388.000,176.043 388.000 C 176.679 388.000,177.200 387.820,177.200 387.600 C 177.200 387.380,177.551 387.200,177.980 387.200 C 178.409 387.200,178.916 386.921,179.107 386.581 C 179.297 386.240,179.846 385.932,180.327 385.896 C 180.807 385.859,181.200 385.708,181.200 385.558 C 181.200 385.409,181.650 385.174,182.200 385.036 C 182.750 384.898,183.200 384.608,183.200 384.392 C 183.200 384.177,183.470 384.000,183.800 384.000 C 184.130 384.000,184.400 383.820,184.400 383.600 C 184.400 383.380,184.738 383.200,185.151 383.200 C 185.564 383.200,186.126 382.930,186.400 382.600 C 186.674 382.270,187.155 382.000,187.468 382.000 C 187.782 382.000,188.455 381.550,188.965 381.000 C 189.475 380.450,190.192 380.000,190.558 380.000 C 190.925 380.000,191.329 379.730,191.455 379.400 C 191.582 379.070,191.936 378.800,192.243 378.800 C 192.549 378.800,192.800 378.620,192.800 378.400 C 192.800 378.180,193.074 378.000,193.409 378.000 C 193.743 378.000,194.225 377.543,194.480 376.985 C 194.746 376.401,195.169 376.056,195.475 376.173 C 195.768 376.286,196.229 376.023,196.500 375.589 C 196.771 375.155,197.219 374.800,197.496 374.800 C 197.773 374.800,198.000 374.607,198.000 374.371 C 198.000 373.849,199.005 372.800,199.506 372.800 C 199.706 372.800,200.627 372.080,201.552 371.200 C 202.477 370.320,203.417 369.600,203.640 369.600 C 203.864 369.600,203.928 369.408,203.783 369.173 C 203.638 368.938,203.896 368.648,204.355 368.528 C 204.815 368.407,205.092 368.150,204.972 367.955 C 204.851 367.760,205.033 367.600,205.376 367.600 C 205.719 367.600,206.000 367.330,206.000 367.000 C 206.000 366.670,206.191 366.400,206.424 366.400 C 206.978 366.400,213.200 360.178,213.200 359.624 C 213.200 359.391,213.389 359.200,213.619 359.200 C 214.221 359.200,217.600 355.786,217.600 355.177 C 217.600 354.897,217.702 354.769,217.827 354.894 C 218.112 355.179,220.400 352.973,220.400 352.413 C 220.400 352.186,220.593 352.000,220.829 352.000 C 221.292 352.000,222.400 351.016,222.400 350.605 C 222.400 350.466,222.220 350.464,222.000 350.600 C 221.780 350.736,221.600 350.657,221.600 350.424 C 221.600 350.191,221.870 350.000,222.200 350.000 C 222.530 350.000,222.803 349.775,222.806 349.500 C 222.810 349.167,222.942 349.200,223.200 349.600 C 223.566 350.166,223.820 349.442,223.652 348.314 C 223.629 348.157,223.840 348.117,224.121 348.225 C 224.402 348.333,225.414 347.508,226.369 346.391 C 227.324 345.274,228.712 343.736,229.453 342.973 C 230.194 342.210,230.800 341.409,230.800 341.193 C 230.800 340.977,230.993 340.800,231.229 340.800 C 231.782 340.800,232.800 339.782,232.800 339.229 C 232.800 338.993,233.070 338.800,233.400 338.800 C 233.730 338.800,234.000 338.607,234.000 338.371 C 234.000 337.818,235.018 336.800,235.571 336.800 C 235.807 336.800,236.000 336.530,236.000 336.200 C 236.000 335.870,236.193 335.600,236.429 335.600 C 237.032 335.600,238.091 334.472,237.852 334.084 C 237.742 333.907,237.818 333.500,238.020 333.181 C 238.272 332.782,238.390 332.757,238.394 333.100 C 238.405 333.990,239.106 333.629,239.364 332.600 C 239.502 332.050,239.871 331.600,240.184 331.600 C 240.497 331.600,240.863 331.422,240.997 331.205 C 241.137 330.978,240.977 330.911,240.621 331.047 C 240.279 331.178,240.000 331.086,240.000 330.843 C 240.000 330.599,240.270 330.400,240.600 330.400 C 240.930 330.400,241.200 330.220,241.200 330.000 C 241.200 329.780,241.489 329.600,241.843 329.600 C 242.224 329.600,242.400 329.376,242.274 329.050 C 242.144 328.709,242.318 328.519,242.732 328.550 C 243.099 328.577,243.355 328.375,243.300 328.100 C 243.245 327.825,243.396 327.645,243.635 327.700 C 243.874 327.755,244.375 327.247,244.747 326.571 C 245.119 325.894,245.643 325.414,245.912 325.504 C 246.180 325.593,246.400 325.382,246.400 325.033 C 246.400 324.685,246.580 324.400,246.800 324.400 C 247.020 324.400,247.200 324.130,247.200 323.800 C 247.200 323.470,247.393 323.200,247.629 323.200 C 248.182 323.200,249.200 322.182,249.200 321.629 C 249.200 321.393,249.378 321.200,249.595 321.200 C 250.216 321.200,251.600 319.880,251.600 319.287 C 251.600 318.993,251.780 318.864,252.000 319.000 C 252.227 319.140,252.400 318.804,252.400 318.224 C 252.400 317.158,252.985 316.831,253.335 317.700 C 253.446 317.975,253.551 317.694,253.568 317.076 C 253.586 316.435,253.772 316.059,254.000 316.200 C 254.220 316.336,254.403 316.122,254.406 315.724 C 254.410 315.243,254.514 315.160,254.715 315.476 C 254.918 315.796,255.327 315.501,255.960 314.576 C 256.479 313.819,257.060 313.200,257.252 313.200 C 257.443 313.200,257.600 312.930,257.600 312.600 C 257.600 312.270,257.793 312.000,258.029 312.000 C 258.582 312.000,259.600 310.982,259.600 310.429 C 259.600 310.193,259.870 310.000,260.200 310.000 C 260.530 310.000,260.800 309.807,260.800 309.571 C 260.800 308.998,261.825 308.000,262.414 308.000 C 262.673 308.000,262.784 307.735,262.660 307.412 C 262.536 307.088,262.696 306.561,263.017 306.240 C 263.338 305.919,263.600 305.464,263.600 305.229 C 263.600 304.993,263.799 304.800,264.043 304.800 C 264.297 304.800,264.375 305.098,264.226 305.500 C 264.083 305.885,264.600 305.480,265.375 304.600 C 266.150 303.720,266.788 302.796,266.792 302.546 C 266.797 302.296,267.250 301.797,267.800 301.437 C 268.350 301.076,268.800 300.516,268.800 300.191 C 268.800 299.866,268.993 299.600,269.229 299.600 C 269.782 299.600,270.800 298.582,270.800 298.029 C 270.800 297.793,270.978 297.600,271.195 297.600 C 271.898 297.600,273.200 296.243,273.200 295.511 C 273.200 295.120,273.411 294.800,273.669 294.800 C 274.485 294.800,275.557 293.553,275.305 292.897 C 275.146 292.482,275.223 292.367,275.532 292.558 C 275.813 292.732,276.000 292.598,276.000 292.224 C 276.000 291.881,276.230 291.600,276.511 291.600 C 277.065 291.600,279.200 289.344,279.200 288.759 C 279.200 288.561,279.393 288.400,279.629 288.400 C 280.079 288.400,281.200 287.421,281.200 287.027 C 281.200 286.900,282.100 285.915,283.200 284.838 C 284.300 283.761,285.200 282.521,285.200 282.084 C 285.200 281.572,285.449 281.309,285.900 281.344 C 286.285 281.375,286.555 281.175,286.500 280.900 C 286.445 280.625,286.600 280.445,286.845 280.500 C 287.090 280.555,287.585 280.019,287.945 279.309 C 288.305 278.599,288.748 278.014,288.929 278.009 C 289.407 277.996,290.400 276.929,290.400 276.429 C 290.400 276.193,290.593 276.000,290.829 276.000 C 291.562 276.000,292.400 274.900,292.406 273.929 C 292.411 273.221,292.498 273.136,292.773 273.570 C 293.061 274.026,293.355 273.877,294.240 272.826 C 294.848 272.103,295.595 271.262,295.901 270.956 C 296.207 270.650,296.309 270.395,296.129 270.388 C 295.948 270.381,296.119 270.190,296.508 269.963 C 296.898 269.736,297.129 269.409,297.022 269.236 C 296.915 269.062,297.271 268.683,297.814 268.393 C 298.356 268.102,298.800 267.702,298.800 267.504 C 298.800 267.051,299.830 266.000,300.274 266.000 C 300.456 266.000,300.844 265.460,301.136 264.800 C 301.428 264.140,301.933 263.600,302.257 263.600 C 302.582 263.600,302.736 263.420,302.600 263.200 C 302.464 262.980,302.608 262.800,302.920 262.800 C 303.233 262.800,303.828 262.337,304.244 261.771 C 304.660 261.205,305.502 260.210,306.116 259.558 C 306.729 258.907,307.107 258.172,306.954 257.925 C 306.784 257.650,306.857 257.588,307.142 257.764 C 307.424 257.939,307.881 257.571,308.304 256.828 C 308.687 256.156,309.225 255.604,309.500 255.603 C 309.775 255.601,310.000 255.330,310.000 255.000 C 310.000 254.670,310.193 254.400,310.429 254.400 C 310.982 254.400,312.000 253.382,312.000 252.829 C 312.000 252.593,312.193 252.400,312.429 252.400 C 313.320 252.400,314.183 251.161,313.565 250.770 C 313.166 250.517,313.147 250.410,313.500 250.406 C 313.775 250.403,314.000 250.130,314.000 249.800 C 314.000 249.427,314.378 249.200,315.000 249.200 C 315.800 249.200,316.000 249.000,316.000 248.200 C 316.000 247.650,316.199 247.200,316.443 247.200 C 316.686 247.200,316.778 247.479,316.647 247.821 C 316.511 248.177,316.578 248.337,316.805 248.197 C 317.022 248.063,317.203 247.558,317.206 247.076 C 317.211 246.364,317.285 246.312,317.600 246.800 C 317.930 247.311,317.989 247.294,317.994 246.687 C 317.997 246.296,318.270 245.871,318.600 245.745 C 318.930 245.618,319.200 245.264,319.200 244.957 C 319.200 244.651,319.400 244.445,319.645 244.500 C 319.890 244.555,320.385 244.019,320.745 243.309 C 321.105 242.599,321.548 242.014,321.729 242.009 C 322.207 241.996,323.200 240.929,323.200 240.429 C 323.200 240.193,323.394 240.000,323.631 240.000 C 324.382 240.000,326.450 237.687,325.898 237.464 C 325.502 237.304,325.502 237.257,325.900 237.232 C 326.175 237.214,326.400 236.922,326.400 236.582 C 326.400 236.243,326.625 235.994,326.900 236.030 C 328.110 236.187,328.627 236.005,328.035 235.630 C 327.560 235.330,327.582 235.161,328.171 234.571 C 328.761 233.982,328.930 233.960,329.230 234.435 C 329.491 234.847,329.589 234.702,329.594 233.900 C 329.599 233.030,329.788 232.799,330.500 232.794 C 331.151 232.789,331.251 232.694,330.862 232.447 C 330.469 232.197,330.624 232.030,331.441 231.825 C 332.313 231.607,332.431 231.465,331.979 231.179 C 331.482 230.864,331.486 230.811,332.011 230.806 C 332.544 230.801,334.800 228.637,334.800 228.130 C 334.800 228.027,335.072 227.671,335.404 227.339 C 335.736 227.007,335.881 226.525,335.727 226.268 C 335.547 225.967,335.672 225.983,336.077 226.311 C 336.615 226.746,336.745 226.672,336.962 225.811 C 337.126 225.155,337.494 224.800,338.008 224.800 C 338.616 224.800,338.800 224.530,338.800 223.637 C 338.800 222.649,338.935 222.500,339.700 222.642 C 340.195 222.734,340.375 222.702,340.100 222.571 C 339.253 222.168,339.545 221.659,340.700 221.527 C 341.488 221.436,341.836 221.144,341.928 220.500 C 341.998 220.005,342.223 219.600,342.428 219.600 C 342.633 219.600,342.800 219.330,342.800 219.000 C 342.800 218.658,343.160 218.400,343.637 218.400 C 344.120 218.400,344.558 218.082,344.671 217.650 C 344.779 217.238,345.397 216.509,346.045 216.030 C 346.692 215.551,347.117 214.989,346.988 214.780 C 346.858 214.571,347.033 214.400,347.376 214.400 C 347.719 214.400,348.000 214.130,348.000 213.800 C 348.000 213.470,348.193 213.200,348.429 213.200 C 348.982 213.200,350.000 212.182,350.000 211.629 C 350.000 211.393,350.193 211.200,350.429 211.200 C 351.152 211.200,351.998 210.107,352.032 209.129 C 352.049 208.618,352.154 208.425,352.265 208.700 C 352.612 209.560,353.200 209.246,353.200 208.200 C 353.200 207.452,353.411 207.200,354.037 207.200 C 354.538 207.200,354.959 206.879,355.084 206.400 C 355.199 205.960,355.458 205.600,355.659 205.600 C 355.860 205.600,356.144 205.285,356.290 204.900 C 356.630 204.002,357.423 203.200,357.971 203.200 C 358.207 203.200,358.400 203.008,358.400 202.773 C 358.400 202.538,359.067 201.717,359.883 200.948 C 361.097 199.802,361.260 199.479,360.783 199.158 C 360.315 198.844,360.353 198.790,360.978 198.883 C 361.458 198.955,361.931 198.657,362.213 198.103 C 362.465 197.610,363.060 196.868,363.535 196.456 C 364.011 196.044,364.400 195.502,364.400 195.253 C 364.400 195.004,364.625 194.793,364.900 194.785 C 365.424 194.769,367.600 191.876,367.600 191.195 C 367.600 190.978,367.870 190.800,368.200 190.800 C 368.530 190.800,368.800 190.530,368.800 190.200 C 368.800 189.870,368.980 189.600,369.200 189.600 C 369.420 189.600,369.600 189.407,369.600 189.171 C 369.600 188.936,369.825 188.492,370.100 188.185 C 371.287 186.862,371.600 186.409,371.600 186.017 C 371.600 185.788,371.772 185.600,371.981 185.600 C 372.191 185.600,372.676 184.925,373.060 184.100 C 373.443 183.275,373.992 182.456,374.278 182.280 C 374.565 182.104,374.800 181.628,374.800 181.223 C 374.800 180.817,375.070 180.382,375.400 180.255 C 375.730 180.129,376.000 179.659,376.000 179.213 C 376.000 178.766,376.180 178.400,376.400 178.400 C 376.620 178.400,376.800 178.034,376.800 177.587 C 376.800 177.141,377.070 176.671,377.400 176.545 C 377.730 176.418,378.000 175.984,378.000 175.581 C 378.000 175.177,378.180 174.736,378.400 174.600 C 378.620 174.464,378.800 174.012,378.800 173.596 C 378.800 173.180,379.026 172.696,379.302 172.520 C 379.853 172.169,380.800 169.736,380.800 168.672 C 380.800 168.302,381.070 168.000,381.400 168.000 C 381.740 168.000,382.000 167.641,382.000 167.171 C 382.000 166.716,382.270 166.073,382.600 165.743 C 382.930 165.413,383.200 164.716,383.200 164.195 C 383.200 163.674,383.380 163.136,383.600 163.000 C 383.820 162.864,384.000 162.391,384.000 161.948 C 384.000 161.505,384.270 160.873,384.600 160.543 C 384.930 160.213,385.200 159.416,385.200 158.771 C 385.200 158.127,385.380 157.600,385.600 157.600 C 385.820 157.600,386.000 156.902,386.000 156.049 C 386.000 155.196,386.252 154.288,386.561 154.032 C 387.112 153.575,387.415 152.046,387.850 147.520 C 387.970 146.267,388.323 145.029,388.635 144.771 C 389.045 144.431,389.200 143.320,389.200 140.725 C 389.200 138.757,389.386 136.799,389.614 136.374 C 389.907 135.826,389.899 135.600,389.586 135.600 C 389.343 135.600,389.206 135.195,389.282 134.700 C 389.357 134.205,389.640 133.845,389.909 133.900 C 390.597 134.040,390.625 104.586,389.938 104.162 C 389.652 103.985,389.585 104.052,389.762 104.338 C 389.919 104.592,389.857 104.800,389.624 104.800 C 389.391 104.800,389.200 104.249,389.200 103.576 C 389.200 102.714,389.347 102.436,389.700 102.635 C 390.100 102.861,390.100 102.810,389.700 102.379 C 389.396 102.052,389.200 100.712,389.200 98.969 C 389.200 96.905,389.031 95.958,388.600 95.600 C 388.217 95.282,388.000 94.397,388.000 93.151 C 388.000 92.078,387.820 91.200,387.600 91.200 C 387.380 91.200,387.200 90.300,387.200 89.200 C 387.200 88.004,387.022 87.200,386.757 87.200 C 386.514 87.200,386.422 87.479,386.553 87.821 C 386.689 88.177,386.622 88.337,386.395 88.197 C 386.178 88.063,386.000 87.063,386.000 85.976 C 386.000 84.889,385.820 84.000,385.600 84.000 C 385.380 84.000,385.200 83.280,385.200 82.400 C 385.200 81.358,385.020 80.800,384.683 80.800 C 384.376 80.800,383.949 79.826,383.635 78.412 C 383.344 77.098,382.862 75.703,382.565 75.312 C 382.268 74.920,382.020 74.214,382.013 73.743 C 382.006 73.271,381.730 72.782,381.400 72.655 C 381.070 72.529,380.800 71.969,380.800 71.413 C 380.800 70.856,380.620 70.400,380.400 70.400 C 380.180 70.400,380.000 69.950,380.000 69.400 C 380.000 68.778,379.773 68.400,379.400 68.400 C 379.027 68.400,378.800 68.022,378.800 67.400 C 378.800 66.850,378.620 66.400,378.400 66.400 C 378.180 66.400,378.000 65.950,378.000 65.400 C 378.000 64.778,377.773 64.400,377.400 64.400 C 377.027 64.400,376.800 64.022,376.800 63.400 C 376.800 62.850,376.640 62.400,376.443 62.400 C 376.247 62.400,375.974 61.950,375.836 61.400 C 375.698 60.850,375.408 60.400,375.192 60.400 C 374.977 60.400,374.800 60.124,374.800 59.787 C 374.800 59.451,374.530 59.071,374.200 58.945 C 373.870 58.818,373.600 58.374,373.600 57.957 C 373.600 57.541,373.420 57.200,373.200 57.200 C 372.980 57.200,372.800 56.851,372.800 56.424 C 372.800 55.493,372.151 54.989,371.866 55.698 C 371.754 55.974,371.649 55.720,371.632 55.133 C 371.614 54.547,371.465 54.007,371.300 53.933 C 370.876 53.745,367.600 48.819,367.600 48.371 C 367.600 48.167,367.330 48.000,367.000 48.000 C 366.670 48.000,366.400 47.807,366.400 47.571 C 366.400 47.018,365.382 46.000,364.829 46.000 C 364.593 46.000,364.400 45.666,364.400 45.258 C 364.400 44.851,363.950 44.031,363.400 43.438 C 362.850 42.844,362.400 42.265,362.400 42.151 C 362.400 41.775,361.266 40.800,360.829 40.800 C 360.593 40.800,360.400 40.530,360.400 40.200 C 360.400 39.870,360.207 39.600,359.971 39.600 C 359.517 39.600,358.400 38.619,358.400 38.220 C 358.400 37.807,354.036 33.600,353.609 33.600 C 353.384 33.600,353.200 33.330,353.200 33.000 C 353.200 32.670,353.007 32.400,352.771 32.400 C 352.218 32.400,351.200 31.382,351.200 30.829 C 351.200 30.593,350.930 30.400,350.600 30.400 C 350.270 30.400,350.000 30.207,350.000 29.971 C 350.000 29.534,349.025 28.400,348.649 28.400 C 348.535 28.400,347.956 27.950,347.362 27.400 C 346.769 26.850,345.949 26.400,345.542 26.400 C 345.134 26.400,344.800 26.207,344.800 25.971 C 344.800 25.438,343.790 24.400,343.271 24.400 C 343.059 24.400,342.782 24.130,342.655 23.800 C 342.529 23.470,342.059 23.200,341.613 23.200 C 341.157 23.200,340.800 22.936,340.800 22.600 C 340.800 22.261,340.442 22.000,339.976 22.000 C 339.523 22.000,339.264 21.820,339.400 21.600 C 339.536 21.380,339.389 21.200,339.073 21.200 C 338.757 21.200,338.274 20.930,338.000 20.600 C 337.726 20.270,337.151 20.000,336.722 20.000 C 335.935 20.000,334.803 19.135,334.797 18.529 C 334.793 18.147,332.885 17.200,332.120 17.200 C 331.834 17.200,331.600 16.930,331.600 16.600 C 331.600 16.234,331.227 16.000,330.643 16.000 C 330.116 16.000,329.582 15.730,329.455 15.400 C 329.329 15.070,328.759 14.800,328.189 14.800 C 327.600 14.800,327.259 14.627,327.400 14.400 C 327.610 14.060,326.491 13.796,325.500 13.953 C 325.335 13.979,325.200 13.730,325.200 13.400 C 325.200 12.974,324.764 12.798,323.700 12.794 C 322.584 12.789,322.354 12.688,322.800 12.400 C 323.268 12.098,323.157 12.011,322.300 12.006 C 321.592 12.002,321.200 11.786,321.200 11.400 C 321.200 11.027,320.822 10.800,320.200 10.800 C 319.650 10.800,319.197 10.575,319.194 10.300 C 319.189 9.932,319.097 9.943,318.844 10.343 C 318.604 10.721,318.417 10.751,318.226 10.443 C 318.076 10.199,317.333 10.000,316.576 10.000 C 315.223 10.000,314.718 9.461,315.700 9.065 C 316.153 8.882,314.259 8.625,313.470 8.763 C 313.289 8.794,313.251 8.641,313.387 8.422 C 313.635 8.020,312.562 7.621,310.900 7.497 C 310.405 7.460,310.000 7.288,310.000 7.115 C 310.000 6.942,309.345 6.800,308.544 6.800 C 307.632 6.800,306.885 6.539,306.543 6.100 C 306.024 5.433,306.010 5.433,306.242 6.100 C 306.408 6.577,306.281 6.800,305.843 6.800 C 305.489 6.800,305.200 6.530,305.200 6.200 C 305.200 5.800,304.800 5.600,304.000 5.600 C 303.340 5.600,302.800 5.420,302.800 5.200 C 302.800 4.980,302.609 4.800,302.376 4.800 C 302.143 4.800,302.064 4.980,302.200 5.200 C 302.336 5.420,302.257 5.600,302.024 5.600 C 301.791 5.600,301.600 5.420,301.600 5.200 C 301.600 4.980,300.646 4.800,299.480 4.800 C 298.314 4.800,297.118 4.575,296.821 4.300 C 296.384 3.894,296.337 3.913,296.571 4.400 C 296.747 4.767,296.637 4.728,296.286 4.300 C 295.597 3.460,258.800 3.189,258.800 4.024 M289.400 21.021 C 342.589 29.249,377.133 75.441,371.797 131.200 C 371.121 138.265,370.884 139.631,368.973 147.479 C 364.979 163.879,358.825 175.032,346.904 187.474 C 344.757 189.715,339.475 195.205,335.167 199.674 C 325.954 209.231,320.952 214.523,315.200 220.798 C 312.890 223.318,309.823 226.645,308.384 228.190 C 306.945 229.736,304.065 232.890,301.984 235.200 C 299.903 237.510,298.100 239.490,297.978 239.600 C 297.233 240.271,280.440 258.555,279.337 259.897 C 277.844 261.712,277.235 261.366,270.726 255.000 C 267.351 251.700,262.797 247.380,260.605 245.400 C 255.445 240.740,249.414 234.923,234.626 220.344 C 228.012 213.823,221.451 207.433,220.047 206.144 C 216.971 203.319,214.660 201.079,197.950 184.727 C 190.828 177.756,184.314 171.589,183.475 171.022 C 182.636 170.454,179.842 167.877,177.266 165.295 C 174.690 162.713,169.684 157.810,166.143 154.400 C 146.131 135.128,137.664 126.645,137.480 125.683 C 137.309 124.788,140.295 121.039,143.600 118.000 C 143.720 117.890,145.509 115.910,147.577 113.600 C 149.645 111.290,154.163 106.430,157.617 102.800 C 161.071 99.170,164.416 95.639,165.049 94.953 C 167.560 92.231,173.423 85.850,173.800 85.428 C 176.767 82.103,178.948 79.764,183.172 75.376 C 189.838 68.451,193.001 65.085,197.803 59.805 C 204.920 51.979,212.964 44.199,218.630 39.663 C 221.307 37.519,228.834 32.766,232.000 31.220 C 233.870 30.306,235.694 29.400,236.052 29.206 C 238.209 28.038,246.064 25.078,249.251 24.232 C 251.313 23.685,254.080 22.952,255.400 22.604 C 264.583 20.183,279.498 19.489,289.400 21.021 M126.887 144.660 C 128.049 145.683,131.070 148.536,133.600 151.001 C 136.130 153.465,139.730 156.928,141.600 158.697 C 143.470 160.466,145.990 162.853,147.200 164.000 C 148.410 165.148,153.008 169.622,157.419 173.943 C 161.829 178.265,168.579 184.759,172.419 188.377 C 176.258 191.994,182.108 197.574,185.418 200.777 C 192.199 207.339,207.869 222.389,213.568 227.813 C 215.641 229.786,218.813 232.840,220.617 234.600 C 222.421 236.360,227.558 241.310,232.032 245.600 C 236.507 249.890,241.153 254.480,242.357 255.800 C 244.587 258.243,251.158 264.769,259.158 272.484 C 264.453 277.591,264.439 277.526,260.928 281.316 C 254.762 287.971,252.763 290.106,247.175 296.000 C 243.943 299.410,240.511 303.084,239.549 304.164 C 237.930 305.982,229.038 315.536,217.710 327.629 C 215.120 330.395,210.750 335.155,208.000 338.207 C 201.404 345.526,190.109 356.852,186.600 359.663 C 165.251 376.768,138.859 383.245,109.600 378.561 C 107.510 378.227,105.260 377.790,104.600 377.590 C 89.445 373.003,82.225 369.421,69.829 360.338 C 56.644 350.677,41.127 327.981,37.599 313.200 C 37.363 312.210,36.907 310.770,36.585 310.000 C 32.128 299.332,30.255 275.936,32.838 263.200 C 33.039 262.210,33.466 259.996,33.787 258.279 C 35.441 249.425,38.137 241.728,42.711 232.800 C 48.237 222.012,51.493 217.952,69.173 199.800 C 72.601 196.280,78.915 189.711,83.203 185.201 C 87.491 180.692,93.341 174.572,96.201 171.601 C 99.062 168.631,105.272 162.073,110.001 157.029 C 125.408 140.597,123.695 141.851,126.887 144.660 " stroke="none" fill="#18443d" fill-rule="evenodd"></path><path id="path2" d="M305.200 6.167 C 305.200 6.515,305.485 6.800,305.833 6.800 C 306.182 6.800,306.395 6.586,306.308 6.325 C 306.061 5.583,305.200 5.460,305.200 6.167 M269.600 20.381 C 264.903 20.809,258.272 21.847,255.400 22.604 C 254.080 22.952,251.313 23.685,249.251 24.232 C 244.271 25.554,234.388 29.600,236.140 29.600 C 236.305 29.600,236.966 29.328,237.609 28.995 C 243.682 25.855,254.892 22.728,264.800 21.410 C 273.630 20.235,277.451 20.231,289.600 21.386 C 291.474 21.564,291.356 21.509,288.800 21.015 C 285.170 20.314,274.284 19.954,269.600 20.381 M293.000 22.000 C 293.660 22.168,294.650 22.309,295.200 22.313 L 296.200 22.320 295.200 22.000 C 294.650 21.824,293.660 21.683,293.000 21.687 L 291.800 21.695 293.000 22.000 M297.000 22.800 C 297.440 22.989,298.160 23.144,298.600 23.144 L 299.400 23.144 298.600 22.800 C 298.160 22.611,297.440 22.456,297.000 22.456 L 296.200 22.456 297.000 22.800 M303.600 24.555 C 354.509 40.438,381.985 92.824,368.345 148.000 C 364.183 164.833,357.872 175.426,342.607 191.200 C 337.816 196.150,330.191 204.160,325.661 209.000 C 321.132 213.840,316.230 219.060,314.768 220.600 C 313.306 222.140,310.069 225.650,307.573 228.400 C 302.344 234.162,301.263 235.335,293.971 243.169 C 291.017 246.342,286.288 251.472,283.462 254.569 C 280.569 257.739,278.015 260.200,277.618 260.200 C 277.230 260.200,273.602 257.026,269.556 253.148 C 265.510 249.269,260.959 245.039,259.443 243.748 C 257.926 242.456,254.371 239.159,251.543 236.420 C 248.714 233.681,246.423 231.611,246.452 231.820 C 246.508 232.229,254.131 239.540,260.610 245.400 C 262.799 247.380,267.351 251.700,270.726 255.000 C 277.235 261.366,277.844 261.712,279.337 259.897 C 280.440 258.555,297.233 240.271,297.978 239.600 C 298.100 239.490,299.903 237.510,301.984 235.200 C 304.065 232.890,306.945 229.736,308.384 228.190 C 309.823 226.645,312.890 223.318,315.200 220.798 C 320.952 214.523,325.954 209.231,335.167 199.674 C 352.567 181.625,353.610 180.463,356.848 175.532 C 360.339 170.215,361.824 167.534,363.788 163.000 C 382.393 120.060,370.307 68.130,335.276 40.495 C 326.140 33.287,305.226 23.038,300.033 23.223 C 299.685 23.235,301.290 23.835,303.600 24.555 M205.657 27.563 C 205.255 27.813,205.236 27.975,205.584 28.190 C 206.133 28.529,206.545 28.229,206.342 27.638 C 206.258 27.396,205.976 27.365,205.657 27.563 M231.800 31.254 C 228.732 32.815,221.081 37.700,218.630 39.663 C 212.964 44.199,204.920 51.979,197.803 59.805 C 193.001 65.085,189.838 68.451,183.172 75.376 C 178.948 79.764,176.767 82.103,173.800 85.428 C 173.423 85.850,167.560 92.231,165.049 94.953 C 164.416 95.639,161.071 99.170,157.617 102.800 C 154.163 106.430,149.645 111.290,147.577 113.600 C 145.509 115.910,143.720 117.890,143.600 118.000 C 140.290 121.044,137.309 124.788,137.480 125.686 C 137.635 126.494,156.611 145.666,159.432 147.863 C 159.670 148.049,154.976 143.340,149.003 137.400 C 143.029 131.460,138.044 126.222,137.924 125.760 C 137.681 124.822,138.259 124.074,143.145 119.000 C 144.840 117.240,148.012 113.820,150.193 111.400 C 152.374 108.980,157.070 103.940,160.628 100.200 C 164.186 96.460,168.951 91.330,171.217 88.800 C 173.482 86.270,178.950 80.415,183.368 75.789 C 187.785 71.162,193.276 65.312,195.569 62.789 C 210.410 46.455,220.883 37.468,231.722 31.763 C 233.965 30.583,235.620 29.619,235.400 29.621 C 235.180 29.623,233.560 30.358,231.800 31.254 M389.200 103.800 C 389.200 104.350,389.344 104.800,389.520 104.800 C 389.696 104.800,389.840 104.350,389.840 103.800 C 389.840 103.250,389.696 102.800,389.520 102.800 C 389.344 102.800,389.200 103.250,389.200 103.800 M389.467 133.867 C 389.095 134.238,389.132 135.600,389.513 135.600 C 389.685 135.600,389.863 135.150,389.908 134.600 C 389.995 133.557,389.913 133.421,389.467 133.867 M121.053 145.329 C 119.704 146.720,114.731 151.985,110.001 157.029 C 105.272 162.073,99.062 168.631,96.201 171.601 C 93.341 174.572,87.491 180.692,83.203 185.201 C 78.915 189.711,72.601 196.280,69.173 199.800 C 51.493 217.952,48.237 222.012,42.711 232.800 C 38.137 241.728,35.441 249.425,33.787 258.279 C 33.466 259.996,33.039 262.210,32.838 263.200 C 30.255 275.936,32.128 299.332,36.585 310.000 C 36.907 310.770,37.363 312.210,37.599 313.200 C 41.127 327.981,56.644 350.677,69.829 360.338 C 82.225 369.421,89.445 373.003,104.600 377.590 C 113.487 380.279,132.293 380.780,144.400 378.650 C 168.994 374.323,184.129 364.698,208.000 338.207 C 210.750 335.155,215.120 330.395,217.710 327.629 C 229.038 315.536,237.930 305.982,239.549 304.164 C 240.511 303.084,243.943 299.410,247.175 296.000 C 252.763 290.106,254.762 287.971,260.928 281.316 C 264.439 277.526,264.453 277.591,259.158 272.484 C 251.158 264.769,244.587 258.243,242.357 255.800 C 241.153 254.480,236.507 249.890,232.032 245.600 C 227.558 241.310,222.421 236.360,220.617 234.600 C 218.813 232.840,215.641 229.786,213.568 227.813 C 207.869 222.389,192.199 207.339,185.418 200.777 C 182.108 197.574,176.258 191.994,172.419 188.377 C 168.579 184.759,161.829 178.265,157.419 173.943 C 153.008 169.622,148.410 165.148,147.200 164.000 C 145.990 162.853,143.470 160.466,141.600 158.697 C 139.730 156.928,136.130 153.465,133.600 151.001 C 123.912 141.564,124.462 141.813,121.053 145.329 M131.095 150.100 C 134.543 153.455,137.655 156.470,138.013 156.800 C 140.090 158.719,147.008 165.329,152.220 170.373 C 157.725 175.702,167.854 185.444,181.373 198.415 C 184.248 201.173,188.490 205.222,190.800 207.413 C 193.110 209.605,197.790 214.110,201.200 217.426 C 204.610 220.741,209.290 225.239,211.600 227.420 C 213.910 229.601,218.320 233.836,221.400 236.832 C 224.480 239.827,228.530 243.731,230.400 245.507 C 238.326 253.034,243.200 257.915,243.200 258.326 C 243.200 258.568,241.895 260.182,240.300 261.912 C 238.705 263.641,236.523 266.034,235.450 267.228 C 232.988 269.971,224.915 278.625,220.180 283.598 C 218.189 285.689,214.684 289.380,212.391 291.800 C 210.098 294.220,206.583 297.910,204.581 300.000 C 202.579 302.090,199.605 305.248,197.971 307.017 C 186.270 319.688,179.948 326.474,179.545 326.796 C 179.404 326.908,177.334 328.822,174.945 331.050 C 159.775 345.189,145.391 351.429,123.800 353.236 C 116.626 353.837,112.262 353.579,102.400 351.971 C 91.438 350.183,80.295 345.839,70.200 339.419 C 63.837 335.371,60.463 333.093,59.400 332.126 C 43.115 317.312,35.975 306.844,33.724 294.483 C 32.817 289.501,32.691 270.333,33.534 265.600 C 34.767 258.677,36.093 252.446,36.810 250.200 C 38.947 243.510,39.597 241.668,40.340 240.200 C 40.785 239.320,42.073 236.710,43.203 234.400 C 48.788 222.984,51.753 219.268,71.768 198.604 C 77.946 192.226,84.715 185.206,86.811 183.004 C 91.662 177.906,96.984 172.335,103.053 166.000 C 105.688 163.250,108.914 159.853,110.222 158.452 C 111.530 157.051,113.230 155.231,114.000 154.409 C 114.770 153.587,117.261 150.909,119.536 148.457 C 121.811 146.006,123.932 144.000,124.250 144.000 C 124.567 144.000,127.648 146.745,131.095 150.100 M160.400 148.752 C 160.400 149.142,161.955 150.598,162.123 150.364 C 162.187 150.274,161.826 149.801,161.320 149.314 C 160.814 148.827,160.400 148.574,160.400 148.752 M88.630 150.824 C 88.159 151.298,88.054 151.600,88.359 151.600 C 88.863 151.600,90.000 150.650,90.000 150.229 C 90.000 149.790,89.394 150.053,88.630 150.824 M163.600 151.736 C 163.600 151.913,163.831 152.269,164.112 152.529 C 164.394 152.788,166.464 154.789,168.712 156.975 C 172.221 160.386,174.313 162.119,172.078 159.761 C 169.611 157.159,163.600 151.469,163.600 151.736 M173.200 161.122 C 173.200 161.302,173.740 161.849,174.400 162.337 C 175.060 162.825,175.600 163.158,175.600 163.078 C 175.600 162.998,175.060 162.451,174.400 161.863 C 173.740 161.275,173.200 160.941,173.200 161.122 M179.431 167.400 C 181.521 169.490,183.425 171.200,183.661 171.200 C 183.898 171.200,185.556 172.591,187.346 174.290 L 190.600 177.380 187.800 174.460 C 186.260 172.855,184.550 171.298,184.000 171.002 C 183.450 170.705,181.470 168.920,179.600 167.034 C 177.730 165.148,176.072 163.604,175.915 163.603 C 175.759 163.601,177.341 165.310,179.431 167.400 M190.800 177.497 C 190.800 177.825,202.061 188.873,202.226 188.707 C 202.300 188.633,199.759 186.028,196.580 182.917 C 193.401 179.806,190.800 177.367,190.800 177.497 M202.446 189.300 C 202.545 189.355,204.600 191.290,207.013 193.600 L 211.400 197.800 207.207 193.500 C 204.901 191.135,202.846 189.200,202.640 189.200 C 202.435 189.200,202.347 189.245,202.446 189.300 M51.873 190.555 C 51.724 190.943,51.889 191.049,52.425 190.909 C 52.846 190.799,53.092 190.550,52.972 190.355 C 52.646 189.828,52.114 189.925,51.873 190.555 M214.800 200.946 C 214.800 201.217,215.626 202.035,219.864 205.966 C 221.149 207.157,223.825 209.677,225.812 211.566 C 227.799 213.455,227.259 212.835,224.612 210.189 C 218.591 204.169,214.800 200.598,214.800 200.946 M230.000 215.603 C 230.000 215.750,230.810 216.629,231.800 217.557 C 232.790 218.485,233.600 219.141,233.600 219.015 C 233.600 218.889,232.790 218.010,231.800 217.062 C 230.810 216.113,230.000 215.457,230.000 215.603 M342.800 218.967 C 342.800 219.278,342.575 219.614,342.300 219.712 C 342.009 219.816,341.948 220.039,342.155 220.245 C 342.361 220.452,342.585 220.388,342.690 220.093 C 342.790 219.814,343.138 219.319,343.464 218.993 C 343.988 218.469,343.984 218.400,343.429 218.400 C 343.083 218.400,342.800 218.655,342.800 218.967 M235.200 221.000 C 235.946 221.770,236.647 222.400,236.757 222.400 C 236.867 222.400,236.346 221.770,235.600 221.000 C 234.854 220.230,234.153 219.600,234.043 219.600 C 233.933 219.600,234.454 220.230,235.200 221.000 M339.600 222.000 C 339.600 222.220,339.870 222.400,340.200 222.400 C 340.530 222.400,340.800 222.220,340.800 222.000 C 340.800 221.780,340.530 221.600,340.200 221.600 C 339.870 221.600,339.600 221.780,339.600 222.000 M238.487 224.205 C 239.304 225.060,240.038 225.679,240.117 225.580 C 240.197 225.481,239.528 224.781,238.631 224.025 L 237.000 222.650 238.487 224.205 M244.293 230.000 C 244.670 230.440,245.116 230.800,245.285 230.800 C 245.454 230.800,245.284 230.440,244.907 230.000 C 244.530 229.560,244.084 229.200,243.915 229.200 C 243.746 229.200,243.916 229.560,244.293 230.000 M328.060 234.642 C 327.331 235.466,327.800 235.857,328.581 235.076 C 328.921 234.736,329.200 234.354,329.200 234.229 C 329.200 233.809,328.606 234.024,328.060 234.642 M326.400 236.600 C 326.400 236.930,326.190 237.200,325.933 237.200 C 325.677 237.200,325.575 237.308,325.707 237.441 C 325.840 237.573,326.319 237.422,326.772 237.105 C 327.224 236.788,327.476 236.409,327.331 236.264 C 326.873 235.806,326.400 235.977,326.400 236.600 M314.000 249.767 C 314.000 250.078,313.775 250.424,313.500 250.535 C 313.211 250.652,313.185 250.750,313.438 250.768 C 313.679 250.786,314.202 250.440,314.600 250.000 C 315.251 249.281,315.257 249.200,314.662 249.200 C 314.298 249.200,314.000 249.455,314.000 249.767 M14.181 299.811 C 14.335 301.210,14.800 301.570,14.800 300.290 C 14.800 299.717,14.636 299.146,14.435 299.022 C 14.234 298.898,14.120 299.253,14.181 299.811 M263.600 305.400 C 263.600 305.730,263.439 306.000,263.243 306.000 C 263.046 306.000,262.766 306.311,262.621 306.691 C 262.428 307.192,262.635 307.119,263.378 306.421 C 264.444 305.419,264.682 304.800,264.000 304.800 C 263.780 304.800,263.600 305.070,263.600 305.400 M241.200 330.000 C 241.200 330.220,240.930 330.400,240.600 330.400 C 240.270 330.400,240.000 330.580,240.000 330.800 C 240.000 331.441,240.618 331.264,241.400 330.400 C 241.811 329.946,241.924 329.600,241.662 329.600 C 241.408 329.600,241.200 329.780,241.200 330.000 " stroke="none" fill="#289069" fill-rule="evenodd"></path><path id="path3" d="M268.800 22.440 C 261.468 23.401,257.111 24.140,254.400 24.881 C 252.750 25.332,250.770 25.840,250.000 26.008 C 242.103 27.740,226.829 35.404,220.018 41.054 C 212.942 46.923,204.278 55.336,196.800 63.599 C 194.710 65.908,191.262 69.598,189.138 71.799 C 181.114 80.111,179.062 82.277,176.665 84.963 C 175.309 86.483,172.940 89.098,171.400 90.775 C 169.860 92.452,167.624 94.899,166.431 96.212 C 165.238 97.526,161.531 101.480,158.194 105.000 C 154.857 108.520,150.433 113.257,148.363 115.528 C 146.293 117.798,143.464 120.895,142.076 122.410 C 138.951 125.821,138.642 125.109,146.766 133.209 C 150.194 136.628,153.738 140.230,154.641 141.213 C 155.543 142.196,160.306 146.870,165.224 151.600 C 170.142 156.330,176.473 162.450,179.293 165.200 C 182.113 167.950,184.608 170.264,184.837 170.342 C 185.332 170.511,185.621 170.789,199.025 183.958 C 204.758 189.591,213.307 197.890,218.022 202.400 C 222.736 206.910,231.185 215.119,236.797 220.643 C 253.124 236.714,254.914 238.426,256.544 239.524 L 258.087 240.564 259.912 238.582 C 260.916 237.492,264.255 233.938,267.332 230.684 C 270.410 227.431,274.204 223.348,275.764 221.611 C 281.294 215.453,291.834 204.304,313.000 182.224 C 318.280 176.716,323.905 170.845,325.500 169.176 C 327.594 166.986,328.400 165.851,328.400 165.092 C 328.400 164.430,329.105 163.182,330.303 161.721 C 352.476 134.678,356.352 93.658,339.972 59.400 C 333.353 45.558,321.390 33.110,310.400 28.630 C 309.410 28.226,307.790 27.587,306.800 27.209 C 305.810 26.831,304.730 26.416,304.400 26.287 C 296.883 23.339,277.730 21.269,268.800 22.440 M78.535 246.090 C 73.579 250.895,72.909 252.902,75.800 254.281 C 77.698 255.186,78.419 254.778,82.123 250.698 C 85.340 247.154,85.639 246.419,84.523 244.789 C 82.932 242.464,82.083 242.649,78.535 246.090 M68.215 269.700 C 64.695 272.777,65.413 298.872,69.185 304.976 C 71.997 309.526,75.445 305.895,73.840 300.076 C 71.978 293.326,71.491 286.143,72.179 275.600 C 72.583 269.414,71.088 267.189,68.215 269.700 M79.062 320.731 C 76.829 323.199,85.089 333.651,88.434 332.589 C 91.465 331.627,91.579 328.754,88.700 325.839 C 82.980 320.046,80.751 318.865,79.062 320.731 " stroke="none" fill="#fbfbfb" fill-rule="evenodd"></path><path id="path4" d="M269.600 21.610 C 241.461 23.803,223.050 34.029,197.605 61.600 C 194.661 64.790,189.078 70.730,185.200 74.800 C 181.321 78.870,177.097 83.370,175.813 84.800 C 174.529 86.230,172.291 88.660,170.839 90.200 C 169.388 91.740,167.314 93.990,166.231 95.200 C 165.148 96.410,162.354 99.380,160.021 101.800 C 157.689 104.220,153.085 109.168,149.790 112.796 C 146.496 116.423,142.764 120.473,141.498 121.796 C 137.695 125.767,136.758 124.231,152.454 139.767 C 168.927 156.071,183.011 169.680,184.701 170.927 C 185.376 171.425,192.469 178.233,200.464 186.057 C 208.459 193.881,216.701 201.883,218.779 203.841 C 220.858 205.798,228.058 212.802,234.779 219.404 C 252.971 237.273,256.094 240.251,257.277 240.852 C 258.804 241.629,262.790 245.217,270.328 252.600 C 277.879 259.994,277.421 259.746,279.401 257.517 C 280.239 256.573,282.022 254.620,283.363 253.178 C 288.035 248.153,295.811 239.839,297.313 238.264 C 298.145 237.391,300.305 235.043,302.113 233.045 C 303.921 231.048,305.694 229.140,306.054 228.807 C 306.413 228.473,307.752 227.030,309.030 225.600 C 311.031 223.360,319.205 214.609,323.600 210.000 C 324.370 209.193,326.378 207.018,328.063 205.166 C 329.748 203.315,332.088 200.803,333.263 199.586 C 350.632 181.585,352.098 179.932,356.135 173.800 C 357.584 171.600,358.911 169.620,359.084 169.400 C 360.236 167.940,364.843 157.032,366.010 153.000 C 369.799 139.914,371.073 130.054,370.687 116.800 C 370.349 105.168,369.485 99.758,365.993 87.400 C 365.105 84.256,362.972 79.246,359.436 72.000 C 349.005 50.621,324.561 30.515,302.076 24.819 C 301.264 24.614,299.880 24.257,299.000 24.028 C 291.397 22.043,278.088 20.948,269.600 21.610 M285.935 22.620 C 293.176 23.507,301.554 25.171,304.400 26.287 C 304.730 26.416,305.810 26.831,306.800 27.209 C 311.019 28.819,312.370 29.469,315.400 31.344 C 324.344 36.878,329.851 42.559,336.780 53.400 C 337.484 54.500,338.920 57.200,339.972 59.400 C 356.352 93.658,352.476 134.678,330.303 161.721 C 329.105 163.182,328.400 164.430,328.400 165.092 C 328.400 165.851,327.594 166.986,325.500 169.176 C 323.905 170.845,318.280 176.716,313.000 182.224 C 291.834 204.304,281.294 215.453,275.764 221.611 C 274.204 223.348,270.410 227.431,267.332 230.684 C 264.255 233.938,260.916 237.492,259.912 238.582 L 258.087 240.564 256.544 239.524 C 254.914 238.426,253.124 236.714,236.797 220.643 C 231.185 215.119,222.736 206.910,218.022 202.400 C 213.307 197.890,204.758 189.591,199.025 183.958 C 185.621 170.789,185.332 170.511,184.837 170.342 C 184.608 170.264,182.113 167.950,179.293 165.200 C 176.473 162.450,170.142 156.330,165.224 151.600 C 160.306 146.870,155.543 142.196,154.641 141.213 C 153.738 140.230,150.194 136.628,146.766 133.209 C 138.642 125.109,138.951 125.821,142.076 122.410 C 143.464 120.895,146.293 117.798,148.363 115.528 C 150.433 113.257,154.857 108.520,158.194 105.000 C 161.531 101.480,165.238 97.526,166.431 96.212 C 167.624 94.899,169.860 92.452,171.400 90.775 C 172.940 89.098,175.309 86.483,176.665 84.963 C 179.062 82.277,181.114 80.111,189.138 71.799 C 191.262 69.598,194.710 65.908,196.800 63.599 C 204.278 55.336,212.942 46.923,220.018 41.054 C 224.910 36.996,234.728 31.526,242.800 28.359 C 245.653 27.240,248.250 26.392,250.000 26.008 C 250.770 25.840,252.750 25.332,254.400 24.881 C 257.111 24.140,261.468 23.401,268.800 22.440 C 273.066 21.880,280.536 21.959,285.935 22.620 M78.392 244.300 C 71.945 250.762,71.127 253.535,75.074 255.553 C 78.236 257.171,86.400 250.549,86.400 246.366 C 86.400 241.727,82.073 240.610,78.392 244.300 M83.423 243.506 C 85.923 245.242,85.636 246.828,82.123 250.698 C 77.959 255.285,75.017 255.997,74.170 252.624 C 73.521 250.037,81.503 242.172,83.423 243.506 M67.074 268.849 C 62.428 273.504,64.450 304.844,69.573 307.586 C 74.376 310.156,76.682 305.678,74.508 298.000 C 73.448 294.256,73.432 294.018,73.416 281.911 C 73.398 267.963,73.447 268.172,70.070 267.719 C 68.591 267.520,68.284 267.636,67.074 268.849 M71.611 269.900 C 72.433 270.942,72.463 271.244,72.179 275.600 C 71.491 286.143,71.978 293.326,73.840 300.076 C 74.910 303.954,74.759 305.084,73.021 306.223 C 71.027 307.529,68.843 305.746,67.943 302.076 C 63.807 285.210,66.316 263.195,71.611 269.900 M78.926 319.180 C 75.934 321.004,75.988 323.358,79.100 326.829 C 85.748 334.243,87.735 335.310,90.408 332.900 C 93.029 330.537,92.564 327.817,88.946 324.352 C 87.481 322.949,85.906 321.383,85.446 320.874 C 83.258 318.449,81.061 317.878,78.926 319.180 M84.487 321.856 C 91.526 328.038,92.702 331.235,88.434 332.589 C 86.419 333.229,78.400 325.431,78.400 322.832 C 78.400 319.477,81.256 319.019,84.487 321.856 " stroke="none" fill="#bdd4d1" fill-rule="evenodd"></path><path id="path5" d="M271.600 20.634 C 270.830 20.723,268.490 20.987,266.400 21.221 C 238.874 24.296,221.027 34.770,195.569 62.789 C 193.276 65.312,187.785 71.162,183.368 75.789 C 178.950 80.415,173.482 86.270,171.217 88.800 C 168.951 91.330,164.186 96.460,160.628 100.200 C 157.070 103.940,152.374 108.980,150.193 111.400 C 148.012 113.820,144.840 117.240,143.145 119.000 C 136.672 125.722,136.772 125.242,140.972 129.402 C 158.409 146.679,183.057 170.485,184.082 171.039 C 184.528 171.281,191.488 177.951,199.547 185.862 C 207.606 193.773,215.460 201.402,217.000 202.815 C 220.507 206.034,218.511 204.088,238.643 223.912 C 248.090 233.214,256.291 241.135,256.868 241.514 C 258.100 242.322,270.148 253.503,274.200 257.599 C 277.727 261.164,277.343 261.290,283.468 254.569 C 286.291 251.472,291.017 246.342,293.971 243.169 C 301.263 235.335,302.344 234.162,307.573 228.400 C 310.069 225.650,313.306 222.140,314.768 220.600 C 316.230 219.060,321.132 213.840,325.661 209.000 C 330.191 204.160,337.816 196.150,342.607 191.200 C 360.934 172.262,368.017 157.969,370.995 133.908 C 377.683 79.888,345.299 32.801,294.163 22.190 C 289.000 21.119,275.463 20.185,271.600 20.634 M291.600 22.638 C 294.790 23.173,298.120 23.798,299.000 24.028 C 299.880 24.257,301.264 24.614,302.076 24.819 C 324.561 30.515,349.005 50.621,359.436 72.000 C 362.972 79.246,365.105 84.256,365.993 87.400 C 369.485 99.758,370.349 105.168,370.687 116.800 C 371.073 130.054,369.799 139.914,366.010 153.000 C 364.843 157.032,360.236 167.940,359.084 169.400 C 358.911 169.620,357.584 171.600,356.135 173.800 C 352.098 179.932,350.632 181.585,333.263 199.586 C 332.088 200.803,329.748 203.315,328.063 205.166 C 326.378 207.018,324.370 209.193,323.600 210.000 C 319.205 214.609,311.031 223.360,309.030 225.600 C 307.752 227.030,306.413 228.473,306.054 228.807 C 305.694 229.140,303.921 231.048,302.113 233.045 C 300.305 235.043,298.145 237.391,297.313 238.264 C 295.811 239.839,288.035 248.153,283.363 253.178 C 282.022 254.620,280.239 256.573,279.401 257.517 C 277.421 259.746,277.879 259.994,270.328 252.600 C 262.790 245.217,258.804 241.629,257.277 240.852 C 256.094 240.251,252.971 237.273,234.779 219.404 C 228.058 212.802,220.858 205.798,218.779 203.841 C 216.701 201.883,208.459 193.881,200.464 186.057 C 192.469 178.233,185.376 171.425,184.701 170.927 C 183.011 169.680,168.927 156.071,152.454 139.767 C 136.758 124.231,137.695 125.767,141.498 121.796 C 142.764 120.473,146.496 116.423,149.790 112.796 C 153.085 109.168,157.689 104.220,160.021 101.800 C 162.354 99.380,165.148 96.410,166.231 95.200 C 167.314 93.990,169.388 91.740,170.839 90.200 C 172.291 88.660,174.529 86.230,175.813 84.800 C 177.097 83.370,181.321 78.870,185.200 74.800 C 189.078 70.730,194.661 64.790,197.605 61.600 C 210.922 47.170,219.347 39.718,228.200 34.537 C 247.288 23.367,270.243 19.058,291.600 22.638 M79.401 327.598 C 80.060 328.367,80.645 329.072,80.700 329.165 C 80.755 329.257,80.887 329.246,80.994 329.139 C 81.101 329.033,80.516 328.328,79.695 327.573 L 78.202 326.200 79.401 327.598 " stroke="none" fill="#7ea39a" fill-rule="evenodd"></path></g></svg>